<?xml version="1.0" encoding="UTF-8" standalone="no"?>
<!-- Created with Inkscape (http://www.inkscape.org/) -->

<svg
   width="100mm"
   height="100mm"
   viewBox="0 0 100 100"
   version="1.1"
   id="svg5"
   xml:space="preserve"
   inkscape:version="1.2.2 (732a01da63, 2022-12-09)"
   sodipodi:docname="favicon.svg"
   xmlns:inkscape="http://www.inkscape.org/namespaces/inkscape"
   xmlns:sodipodi="http://sodipodi.sourceforge.net/DTD/sodipodi-0.dtd"
   xmlns="http://www.w3.org/2000/svg"
   xmlns:svg="http://www.w3.org/2000/svg"><sodipodi:namedview
     id="namedview7"
     pagecolor="#ffffff"
     bordercolor="#cccccc"
     borderopacity="1"
     inkscape:showpageshadow="false"
     inkscape:pageopacity="1"
     inkscape:pagecheckerboard="true"
     inkscape:deskcolor="#d1d1d1"
     inkscape:document-units="mm"
     showgrid="false"
     showguides="true"
     inkscape:zoom="1.0544998"
     inkscape:cx="-2.3707923"
     inkscape:cy="262.68379"
     inkscape:window-width="1920"
     inkscape:window-height="1017"
     inkscape:window-x="-8"
     inkscape:window-y="-8"
     inkscape:window-maximized="1"
     inkscape:current-layer="g4490" /><defs
     id="defs2"><inkscape:path-effect
       effect="fill_between_many"
       method="originald"
       linkedpaths="#path2615,0,1"
       id="path-effect4148"
       is_visible="true"
       lpeversion="0"
       join="true"
       close="true"
       autoreverse="true" /><inkscape:path-effect
       effect="fill_between_many"
       method="originald"
       linkedpaths="#path2615,0,1"
       id="path-effect4148-2"
       is_visible="true"
       lpeversion="0"
       join="true"
       close="true"
       autoreverse="true" /></defs><g
     inkscape:label="Layer 1"
     inkscape:groupmode="layer"
     id="layer1"><g
       id="g4369"><g
         id="g4431"><g
           id="g4490"
           transform="matrix(1.7403978,0,0,1.7403978,-374.96219,-230.20776)"
           style="stroke-width:0.574581"><path
             id="path2615"
             style="fill:#ffffff;stroke:none;stroke-width:0.152023px;stroke-linecap:butt;stroke-linejoin:miter;stroke-opacity:1"
             d="m 244.36344,132.27307 c 0,0 -3.85355,3.15162 -5.24544,4.56211 -1.39192,1.41047 -3.19603,3.30993 -3.10638,3.90141 0.0896,0.59148 0.41471,1.6549 0.89724,2.32303 0.48252,0.66812 1.72292,1.84303 1.72292,1.84303 0,0 -1.02037,0.86704 -1.4101,1.72073 -0.39015,0.85369 -0.37816,3.12536 -0.37816,3.12536 0,0 -4.44104,1.59739 -5.48016,3.06331 -1.03912,1.46591 -0.69611,4.62709 -0.69611,4.62709 l -10.35619,3.67509 c 0.22939,0.83317 0.57729,1.86724 1.23198,3.03375 1.00455,1.78994 2.76127,3.30684 3.84264,3.36116 2.76062,0.1386 5.09742,0.20951 7.13627,0.24494 a 13.473802,13.473802 0 0 0 -0.95198,4.95926 13.473802,13.473802 0 0 0 13.47387,13.47387 13.473802,13.473802 0 0 0 13.47389,-13.47387 13.473802,13.473802 0 0 0 -0.95382,-4.97752 c 1.75049,-0.0409 3.70445,-0.10818 5.94191,-0.22047 1.08135,-0.0543 2.83847,-1.57156 3.84301,-3.36153 0.65469,-1.16652 1.00256,-2.20024 1.23197,-3.03338 l -10.35619,-3.6751 c 0,0 0.34303,-3.16117 -0.6961,-4.62708 -1.03914,-1.46592 -5.48052,-3.06331 -5.48052,-3.06331 0,0 0.0124,-2.27164 -0.3778,-3.12537 -0.38971,-0.8537 -1.4101,-1.7211 -1.4101,-1.7211 0,0 1.24041,-1.1749 1.72292,-1.84302 0.48253,-0.66809 0.80758,-1.73118 0.89724,-2.32267 0.0896,-0.59146 -1.71447,-2.49093 -3.10639,-3.9014 -1.39188,-1.41048 -5.24543,-4.56212 -5.24543,-4.56212 0,0 -0.0522,0.0514 -0.0558,0.0551 v 0.004 c -0.007,-0.006 -0.10917,-0.065 -0.10917,-0.065 z m 0.10916,24.23489 v 2.74828 a 13.473802,13.473802 0 0 0 -0.0131,3.7e-4 z m 0.53951,8.71794 c 3.99978,0 7.21987,3.24293 7.21987,7.27097 0,4.02804 -3.22009,7.27062 -7.21987,7.27062 -3.99978,0 -7.2195,-3.24258 -7.2195,-7.27062 0,-4.02804 3.21972,-7.27097 7.2195,-7.27097 z" /><rect
             style="fill:#ffffff;stroke:none;stroke-width:1.14917;stroke-opacity:1;paint-order:stroke fill markers"
             id="rect4307"
             width="35.038849"
             height="7.5589418"
             x="227.42763"
             y="182.17227"
             ry="1.5563157" /></g></g></g></g></svg>
